<svg xmlns="http://www.w3.org/2000/svg" viewBox="0 0 339 383.5"><g id="Layer_2" data-name="Layer 2"><g id="calendar-check"><path id="calendar" d="M314.5,44.5h-46V0h-25V44.5H95.5V0h-25V44.5h-46A24.52783,24.52783,0,0,0,0,69V359a24.52752,24.52752,0,0,0,24.5,24.5h290A24.5272,24.5272,0,0,0,339,359V69A24.52752,24.52752,0,0,0,314.5,44.5Zm-.5,314H25v-215H314Zm0-240H25v-49H314Z" fill="#e51a1a"/><polygon id="check" points="254.502 204.925 236.998 187.075 142.836 279.408 98.589 235.161 80.911 252.839 142.664 314.592 254.502 204.925" fill="#e51a1a"/></g></g></svg>