<?xml version="1.0" encoding="UTF-8" standalone="no"?>
<!-- Created with Inkscape (http://www.inkscape.org/) -->

<svg
   xmlns:dc="http://purl.org/dc/elements/1.1/"
   xmlns:cc="http://creativecommons.org/ns#"
   xmlns:rdf="http://www.w3.org/1999/02/22-rdf-syntax-ns#"
   xmlns:svg="http://www.w3.org/2000/svg"
   xmlns="http://www.w3.org/2000/svg"
   xmlns:sodipodi="http://sodipodi.sourceforge.net/DTD/sodipodi-0.dtd"
   xmlns:inkscape="http://www.inkscape.org/namespaces/inkscape"
   id="svg2"
   version="1.1"
   inkscape:version="0.91 r13725"
   xml:space="preserve"
   width="236.25"
   height="236.25"
   viewBox="0 0 236.25 236.25"
   sodipodi:docname="city_logo_vector-blue.svg"><metadata
     id="metadata8"><rdf:RDF><cc:Work
         rdf:about=""><dc:format>image/svg+xml</dc:format><dc:type
           rdf:resource="http://purl.org/dc/dcmitype/StillImage" /><dc:title></dc:title></cc:Work></rdf:RDF></metadata><defs
     id="defs6" /><sodipodi:namedview
     pagecolor="#ffffff"
     bordercolor="#666666"
     borderopacity="1"
     objecttolerance="10"
     gridtolerance="10"
     guidetolerance="10"
     inkscape:pageopacity="0"
     inkscape:pageshadow="2"
     inkscape:window-width="863"
     inkscape:window-height="587"
     id="namedview4"
     showgrid="false"
     fit-margin-top="0"
     fit-margin-left="0"
     fit-margin-right="0"
     fit-margin-bottom="0"
     inkscape:zoom="1.2339869"
     inkscape:cx="39.184322"
     inkscape:cy="112.5"
     inkscape:window-x="0"
     inkscape:window-y="0"
     inkscape:window-maximized="0"
     inkscape:current-layer="g10" /><g
     id="g10"
     inkscape:groupmode="layer"
     inkscape:label="city_logo_vector"
     transform="matrix(1.25,0,0,-1.25,-337.5,506.25)"><path
       inkscape:connector-curvature="0"
       id="path14"
       style="fill:#244698;fill-opacity:1;fill-rule:nonzero;stroke:none"
       d="m 346.5,405 c 0,0 18,-18 18,-18 0,0 18,18 18,18 0,0 0,-36 0,-36 0,0 18,18 18,18 0,0 0,-36 0,-36 0,0 -18,-18 -18,-18 0,0 -18,18 -18,18 0,0 -18,-18 -18,-18 0,0 -18,18 -18,18 0,0 0,36 0,36 0,0 18,-18 18,-18 0,0 0,36 0,36 z" /><path
       inkscape:connector-curvature="0"
       id="path16"
       style="fill:#244698;fill-opacity:1;fill-rule:nonzero;stroke:none"
       d="m 312.25391,375.25391 c 0,0 -11.40186,11.40234 -11.40186,11.40234 0,0 0,-12.72852 0,-12.72852 0,0 -12.72803,0 -12.72803,0 0,0 11.40235,-11.40136 11.40235,-11.40136 C 299.52637,362.52637 288,351 288,351 c 0,0 36,0 36,0 0,0 0,36 0,36 0,0 -11.74609,-11.74609 -11.74609,-11.74609 z" /><path
       inkscape:connector-curvature="0"
       id="path18"
       style="fill:#244698;fill-opacity:1;fill-rule:nonzero;stroke:none"
       d="m 270,292.5 c 0,0 18,18 18,18 0,0 -18,18 -18,18 0,0 36,0 36,0 0,0 -18,18 -18,18 0,0 36,0 36,0 0,0 18,-18 18,-18 0,0 -18,-18 -18,-18 0,0 18,-18 18,-18 0,0 -18,-18 -18,-18 0,0 -36,0 -36,0 0,0 18,18 18,18 0,0 -36,0 -36,0 z" /><path
       inkscape:connector-curvature="0"
       id="path20"
       style="fill:#244698;fill-opacity:1;fill-rule:nonzero;stroke:none"
       d="m 324,270 c 0,0 -36,0 -36,0 0,0 11.74609,-11.74609 11.74609,-11.74609 0,0 -11.40234,-11.40235 -11.40234,-11.40235 0,0 12.72803,0 12.72803,0 0,0 0,-12.72754 0,-12.72754 0,0 11.40234,11.40235 11.40234,11.40235 C 312.47412,245.52637 324,234 324,234 c 0,0 0,36 0,36 z" /><path
       inkscape:connector-curvature="0"
       id="path22"
       style="fill:#244698;fill-opacity:1;fill-rule:nonzero;stroke:none"
       d="m 382.5,216 c 0,0 -18,18 -18,18 0,0 -18,-18 -18,-18 0,0 0,36 0,36 0,0 -18,-18 -18,-18 0,0 0,36 0,36 0,0 18,18 18,18 0,0 18,-18 18,-18 0,0 18,18 18,18 0,0 18,-18 18,-18 0,0 0,-36 0,-36 0,0 -18,18 -18,18 0,0 0,-36 0,-36 z" /><path
       inkscape:connector-curvature="0"
       id="path24"
       style="fill:#244698;fill-opacity:1;fill-rule:nonzero;stroke:none"
       d="m 441,270 c 0,0 -36,0 -36,0 0,0 0,-36 0,-36 0,0 11.74609,11.74609 11.74609,11.74609 0,0 11.40235,-11.40234 11.40235,-11.40234 0,0 0,12.72852 0,12.72852 0,0 12.72754,0 12.72754,0 0,0 -11.40235,11.40136 -11.40235,11.40136 C 429.47363,258.47363 441,270 441,270 Z" /><path
       inkscape:connector-curvature="0"
       id="path26"
       style="fill:#244698;fill-opacity:1;fill-rule:nonzero;stroke:none"
       d="m 459,328.5 c 0,0 -18,-18 -18,-18 0,0 18,-18 18,-18 0,0 -36,0 -36,0 0,0 18,-18 18,-18 0,0 -36,0 -36,0 0,0 -18,18 -18,18 0,0 18,18 18,18 0,0 -18,18 -18,18 0,0 18,18 18,18 0,0 36,0 36,0 0,0 -18,-18 -18,-18 0,0 36,0 36,0 z" /><path
       inkscape:connector-curvature="0"
       id="path28"
       style="fill:#244698;fill-opacity:1;fill-rule:nonzero;stroke:none"
       d="m 429.25391,362.74609 c 0,0 11.40234,11.40235 11.40234,11.40235 0,0 -12.72852,0 -12.72852,0 0,0 0,12.72754 0,12.72754 0,0 -11.40136,-11.40235 -11.40136,-11.40235 C 416.52637,375.47363 405,387 405,387 c 0,0 0,-36 0,-36 0,0 36,0 36,0 0,0 -11.74609,11.74609 -11.74609,11.74609 z" /></g></svg>